<svg width="512" height="514" viewBox="0 0 512 514" fill="none" xmlns="http://www.w3.org/2000/svg">
<path d="M315.157 247.321C330.748 258.336 345.314 271.657 356.912 287.692C399.584 346.69 401.957 425.805 398.563 473.138C396.851 497.026 376.285 513.902 352.336 513.902H159.672C135.723 513.902 115.158 497.026 113.445 473.138C110.052 425.805 112.424 346.69 155.097 287.692C166.695 271.657 181.26 258.336 196.851 247.321H315.157Z" fill="white"/>
<path fill-rule="evenodd" clip-rule="evenodd" d="M26.4083 159.346C37.8658 149.328 55.2887 150.48 65.3234 161.918L107.222 209.676C135.644 242.072 143.028 287.83 126.237 327.498L104.611 378.588C88.565 416.496 116.548 458.439 157.771 458.268L167.412 458.228C182.643 458.165 195.041 470.439 195.104 485.644C195.167 500.848 182.872 513.225 167.641 513.288L158 513.328C77.2031 513.663 22.356 431.455 53.8061 357.156L75.4322 306.066C83.9991 285.827 80.2314 262.481 65.7306 245.952L23.8321 198.195C13.7974 186.757 14.9508 169.363 26.4083 159.346Z" fill="white"/>
<path fill-rule="evenodd" clip-rule="evenodd" d="M254.7 30.3506C255.136 30.3506 255.569 30.3517 256.003 30.3551C256.437 30.3517 256.87 30.3506 257.306 30.3506C273.094 30.3506 288.262 32.5073 302.389 36.5772C311.773 31.6107 389.335 -8.91373 401.649 2.19307C413.033 12.4594 395.194 97.2742 390.299 119.432C393.448 130.134 395.129 141.588 395.129 153.671C395.129 216.181 349.568 266.855 257.306 266.855L256.003 266.852L254.7 266.855C162.438 266.855 116.877 216.181 116.877 153.671C116.877 141.588 118.558 130.134 121.707 119.432C116.812 97.2742 98.9727 12.4594 110.357 2.19307C122.671 -8.91373 200.233 31.6107 209.617 36.5772C223.744 32.5073 238.912 30.3506 254.7 30.3506ZM227.277 159.993C218.392 159.993 211.19 152.791 211.19 143.906V116.329C211.19 111.252 215.305 107.137 220.382 107.137H224.978C235.132 107.137 243.363 115.367 243.363 125.521V143.906C243.363 152.791 236.161 159.993 227.277 159.993ZM268.643 143.906C268.643 152.791 275.845 159.993 284.729 159.993C293.614 159.993 300.816 152.791 300.816 143.906V116.329C300.816 111.252 296.701 107.137 291.624 107.137H287.028C276.874 107.137 268.643 115.367 268.643 125.521V143.906ZM261.718 165.738C266.036 165.738 267.991 171.057 264.674 173.781L258.958 178.473C257.246 179.878 254.759 179.878 253.047 178.473L247.331 173.781C244.014 171.057 245.969 165.738 250.287 165.738H261.718Z" fill="white"/>
</svg>
